<?xml version="1.0" encoding="utf-8"?>
<!-- Generator: Adobe Illustrator 26.5.0, SVG Export Plug-In . SVG Version: 6.00 Build 0)  -->
<svg version="1.1" xmlns="http://www.w3.org/2000/svg" xmlns:xlink="http://www.w3.org/1999/xlink" x="0px" y="0px"
	 viewBox="0 0 206.27 75" style="enable-background:new 0 0 206.27 75;" xml:space="preserve">
<style type="text/css">
	.st0{fill:#0000FF;}
</style>
<g id="Layer_1">
	<g>
		<path class="st0" d="M18.74,38.76c-0.66-0.73-1.58-1.36-2.75-1.87c-1.17-0.51-2.53-0.77-4.07-0.77c-2.33,0-4.39,0.58-6.18,1.73
			c-1.79,1.15-3.2,2.8-4.22,4.94C0.51,44.94,0,47.49,0,50.46c0,3.04,0.49,5.64,1.46,7.79c0.98,2.15,2.37,3.79,4.18,4.91
			c1.81,1.13,3.96,1.69,6.44,1.69c1.59,0,2.98-0.29,4.15-0.87c1.17-0.58,2.01-1.2,2.51-1.87v2.09h6.18V25.44l-6.18,2.85V38.76z
			 M18.74,56.26c-0.59,0.88-1.34,1.54-2.26,2c-0.91,0.46-2.09,0.68-3.54,0.68s-2.67-0.36-3.67-1.07c-0.99-0.72-1.75-1.71-2.27-2.98
			c-0.52-1.27-0.78-2.75-0.78-4.43c0-2.74,0.57-4.84,1.72-6.3c1.15-1.46,2.77-2.19,4.89-2.19c1.65,0,2.94,0.3,3.87,0.9
			c0.93,0.6,1.61,1.19,2.04,1.79V56.26z"/>
		<path class="st0" d="M52.8,36.13c-1.67,0-3.18,0.26-4.55,0.77c-1.37,0.51-2.52,1.21-3.44,2.11c-0.68,0.66-1.21,1.39-1.57,2.19
			v-4.42H31.7v5.42h5.8v16.59h-5.8v5.42h19.66v-5.42h-7.68v-8.86c0-1.66,0.31-3.11,0.94-4.32c0.63-1.22,1.63-2.15,3.01-2.81
			c1.38-0.65,3.2-0.98,5.45-0.98v5.91h6.01V37.58c-0.7-0.38-1.58-0.71-2.63-1.01C55.4,36.27,54.18,36.13,52.8,36.13z"/>
		<path class="st0" d="M84.19,37.52c-1.81-0.93-3.81-1.4-6.02-1.4c-2.67,0-4.98,0.58-6.94,1.73c-1.96,1.15-3.48,2.8-4.55,4.94
			c-1.07,2.14-1.61,4.69-1.61,7.66c0,2.9,0.52,5.43,1.57,7.58c1.05,2.16,2.55,3.83,4.51,5.02c1.96,1.19,4.3,1.79,7.02,1.79
			c2.13,0,4.01-0.39,5.65-1.18c1.64-0.79,3.03-1.81,4.18-3.06l-3.71-3.92c-0.86,0.93-1.78,1.61-2.76,2.04
			c-0.99,0.43-2.09,0.64-3.3,0.64c-2.27,0-4.04-0.83-5.3-2.48c-0.84-1.1-1.4-2.45-1.68-4.01h18.63c0.11-0.7,0.17-1.38,0.19-2.04
			c0.02-0.66,0.03-1.23,0.03-1.72c0-2.97-0.53-5.41-1.6-7.33C87.44,39.88,86,38.45,84.19,37.52z M71.29,47.62
			c0.26-1.46,0.72-2.71,1.43-3.7c1.12-1.57,2.94-2.36,5.46-2.36c0.95,0,1.84,0.21,2.69,0.63c0.84,0.42,1.55,1.08,2.12,1.97
			c0.57,0.9,0.92,2.05,1.05,3.46H71.29z"/>
		<path class="st0" d="M116.81,37.82c-1.8-1.13-3.92-1.69-6.35-1.69c-1.61,0-2.95,0.26-4.01,0.78c-1.07,0.52-1.97,1.17-2.7,1.96
			v-2.09h-6.18V75l6.18-2.85V62.01c0.7,0.81,1.58,1.48,2.66,2.03c1.07,0.55,2.44,0.82,4.11,0.82c2.29,0,4.34-0.57,6.15-1.71
			c1.81-1.14,3.23-2.77,4.27-4.91c1.04-2.14,1.56-4.71,1.56-7.72c0-3.04-0.5-5.64-1.49-7.79C120,40.58,118.61,38.95,116.81,37.82z
			 M114.53,56.76c-1.15,1.46-2.8,2.19-4.93,2.19c-1.41,0-2.61-0.28-3.6-0.83c-0.99-0.55-1.74-1.19-2.26-1.91V44.72
			c0.59-0.84,1.37-1.51,2.32-2c0.96-0.49,2.12-0.74,3.48-0.74c2.18,0,3.85,0.78,4.99,2.34c1.15,1.56,1.72,3.62,1.72,6.2
			C116.26,53.22,115.68,55.3,114.53,56.76z"/>
		<path class="st0" d="M148.62,37.89c-1.97-1.17-4.31-1.76-7.04-1.76c-2.7,0-5.04,0.59-7.01,1.77c-1.97,1.18-3.49,2.85-4.55,5.01
			c-1.07,2.16-1.6,4.69-1.6,7.61c0,2.95,0.53,5.5,1.6,7.64c1.06,2.14,2.58,3.79,4.55,4.95c1.97,1.16,4.31,1.75,7.01,1.75
			c2.72,0,5.07-0.58,7.04-1.75c1.97-1.16,3.48-2.82,4.54-4.97c1.06-2.15,1.58-4.69,1.58-7.62s-0.53-5.48-1.58-7.64
			C152.1,40.72,150.59,39.06,148.62,37.89z M146.74,56.64c-1.18,1.54-2.9,2.31-5.16,2.31c-2.22,0-3.93-0.77-5.13-2.31
			c-1.2-1.54-1.8-3.58-1.8-6.12c0-2.58,0.6-4.64,1.8-6.2c1.2-1.56,2.91-2.34,5.13-2.34c2.29,0,4.02,0.78,5.18,2.35
			c1.16,1.57,1.74,3.63,1.74,6.19C148.51,53.06,147.92,55.1,146.74,56.64z"/>
		<polygon class="st0" points="203.86,12.12 193.99,18.92 197.34,20.88 202.41,17.42 201.89,23.53 205.25,25.49 206.27,13.52 		"/>
		<polygon class="st0" points="191.27,20.41 201.48,35.13 202.23,33.83 192.02,19.12 		"/>
		<polygon class="st0" points="190.83,37.27 191.35,31.16 187.99,29.2 186.93,41.14 189.35,42.55 199.26,35.77 195.9,33.81 		"/>
		<polygon class="st0" points="179.69,31.11 180.16,37.22 175.13,33.72 171.75,35.65 181.6,42.51 184.02,41.13 183.07,29.18 		"/>
		<polygon class="st0" points="183.14,26.08 165.29,27.56 166.03,28.86 183.88,27.38 		"/>
		<polygon class="st0" points="169.22,23.39 168.75,17.27 173.79,20.78 177.16,18.85 167.35,11.96 164.93,13.34 165.84,25.32 		"/>
		<polygon class="st0" points="179.66,10.71 174.13,8.05 179.68,5.45 179.7,1.55 168.83,6.66 168.82,9.45 179.65,14.6 		"/>
		<polygon class="st0" points="189.93,0.01 188.44,0 180.8,16.2 182.29,16.2 		"/>
		<polygon class="st0" points="202.43,6.8 191.6,1.6 191.58,5.5 197.11,8.15 191.56,10.76 191.55,14.65 202.42,9.59 		"/>
	</g>
</g>
<g id="Grid">
</g>
</svg>
