<?xml version="1.0" encoding="utf-8"?>
<!-- Generator: Adobe Illustrator 26.5.0, SVG Export Plug-In . SVG Version: 6.00 Build 0)  -->
<svg version="1.1" xmlns="http://www.w3.org/2000/svg" xmlns:xlink="http://www.w3.org/1999/xlink" x="0px" y="0px"
	 viewBox="0 0 249.15 126.92" style="enable-background:new 0 0 249.15 126.92;" xml:space="preserve">
<style type="text/css">
	.st0{fill:#0000FF;}
</style>
<g id="Layer_1">
	<g>
		<path class="st0" d="M43.69,72.84c-0.66-0.73-1.58-1.36-2.75-1.87c-1.17-0.51-2.53-0.77-4.07-0.77c-2.33,0-4.39,0.58-6.18,1.73
			c-1.79,1.15-3.2,2.8-4.22,4.94c-1.02,2.14-1.53,4.69-1.53,7.66c0,3.04,0.49,5.64,1.46,7.79c0.98,2.15,2.37,3.79,4.18,4.91
			c1.81,1.13,3.96,1.69,6.44,1.69c1.59,0,2.98-0.29,4.15-0.87c1.17-0.58,2.01-1.2,2.51-1.87v2.09h6.18V59.52l-6.18,2.85V72.84z
			 M43.69,90.34c-0.59,0.88-1.34,1.54-2.26,2c-0.91,0.46-2.09,0.68-3.54,0.68s-2.67-0.36-3.67-1.07c-0.99-0.72-1.75-1.71-2.27-2.98
			c-0.52-1.27-0.78-2.75-0.78-4.43c0-2.74,0.57-4.84,1.72-6.3c1.15-1.46,2.77-2.19,4.89-2.19c1.65,0,2.94,0.3,3.87,0.9
			c0.93,0.6,1.61,1.19,2.04,1.79V90.34z"/>
		<path class="st0" d="M77.75,70.21c-1.67,0-3.18,0.26-4.55,0.77c-1.37,0.51-2.52,1.21-3.44,2.11c-0.68,0.66-1.21,1.39-1.57,2.19
			v-4.42H56.64v5.42h5.8v16.59h-5.8v5.42H76.3v-5.42h-7.68v-8.86c0-1.66,0.31-3.11,0.94-4.32c0.63-1.22,1.63-2.15,3.01-2.81
			c1.38-0.65,3.2-0.98,5.45-0.98v5.91h6.01V71.66c-0.7-0.38-1.58-0.71-2.63-1.01C80.34,70.35,79.12,70.21,77.75,70.21z"/>
		<path class="st0" d="M109.14,71.6c-1.81-0.93-3.81-1.4-6.02-1.4c-2.67,0-4.98,0.58-6.94,1.73c-1.96,1.15-3.48,2.8-4.55,4.94
			c-1.07,2.14-1.61,4.69-1.61,7.66c0,2.9,0.52,5.43,1.57,7.58c1.05,2.16,2.55,3.83,4.51,5.02c1.96,1.19,4.3,1.79,7.02,1.79
			c2.13,0,4.01-0.39,5.65-1.18c1.64-0.79,3.03-1.81,4.18-3.06l-3.71-3.92c-0.86,0.93-1.78,1.61-2.76,2.04
			c-0.99,0.43-2.09,0.64-3.3,0.64c-2.27,0-4.04-0.83-5.3-2.48c-0.84-1.1-1.4-2.45-1.68-4.01h18.63c0.11-0.7,0.17-1.38,0.19-2.04
			c0.02-0.66,0.03-1.23,0.03-1.72c0-2.97-0.53-5.41-1.6-7.33C112.38,73.96,110.94,72.53,109.14,71.6z M96.23,81.7
			c0.26-1.46,0.72-2.71,1.43-3.7c1.12-1.57,2.94-2.36,5.46-2.36c0.95,0,1.84,0.21,2.69,0.63c0.84,0.42,1.55,1.08,2.12,1.97
			c0.57,0.9,0.92,2.05,1.05,3.46H96.23z"/>
		<path class="st0" d="M141.75,71.9c-1.8-1.13-3.92-1.69-6.35-1.69c-1.61,0-2.95,0.26-4.01,0.78c-1.07,0.52-1.97,1.17-2.7,1.96
			v-2.09h-6.18v38.23l6.18-2.85V96.09c0.7,0.81,1.58,1.48,2.66,2.03c1.07,0.55,2.44,0.82,4.11,0.82c2.29,0,4.34-0.57,6.15-1.71
			c1.81-1.14,3.23-2.77,4.27-4.91c1.04-2.14,1.56-4.71,1.56-7.72c0-3.04-0.5-5.64-1.49-7.79C144.95,74.66,143.55,73.03,141.75,71.9z
			 M139.47,90.84c-1.15,1.46-2.8,2.19-4.93,2.19c-1.41,0-2.61-0.28-3.6-0.83c-0.99-0.55-1.74-1.19-2.26-1.91V78.8
			c0.59-0.84,1.37-1.51,2.32-2c0.96-0.49,2.12-0.74,3.48-0.74c2.18,0,3.85,0.78,4.99,2.34c1.15,1.56,1.72,3.62,1.72,6.2
			C141.2,87.3,140.62,89.38,139.47,90.84z"/>
		<path class="st0" d="M173.56,71.96c-1.97-1.17-4.31-1.76-7.04-1.76c-2.7,0-5.04,0.59-7.01,1.77c-1.97,1.18-3.49,2.85-4.55,5.01
			c-1.07,2.16-1.6,4.69-1.6,7.61c0,2.95,0.53,5.5,1.6,7.64c1.06,2.14,2.58,3.79,4.55,4.95c1.97,1.16,4.31,1.75,7.01,1.75
			c2.72,0,5.07-0.58,7.04-1.75c1.97-1.16,3.48-2.82,4.54-4.97c1.06-2.15,1.58-4.69,1.58-7.62s-0.53-5.48-1.58-7.64
			C177.04,74.8,175.53,73.14,173.56,71.96z M171.68,90.72c-1.18,1.54-2.9,2.31-5.16,2.31c-2.22,0-3.93-0.77-5.13-2.31
			c-1.2-1.54-1.8-3.58-1.8-6.12c0-2.58,0.6-4.64,1.8-6.2c1.2-1.56,2.91-2.34,5.13-2.34c2.29,0,4.02,0.78,5.18,2.35
			c1.16,1.57,1.74,3.63,1.74,6.19C173.46,87.14,172.87,89.18,171.68,90.72z"/>
		<polygon class="st0" points="228.8,46.2 218.93,53 222.29,54.96 227.35,51.5 226.83,57.61 230.2,59.57 231.21,47.6 		"/>
		<polygon class="st0" points="216.21,54.49 226.42,69.2 227.17,67.91 216.97,53.2 		"/>
		<polygon class="st0" points="215.78,71.35 216.29,65.24 212.94,63.28 211.88,75.22 214.29,76.63 224.2,69.85 220.84,67.89 		"/>
		<polygon class="st0" points="204.64,65.19 205.1,71.3 200.07,67.8 196.69,69.73 206.54,76.59 208.97,75.21 208.01,63.26 		"/>
		<polygon class="st0" points="208.08,60.16 190.23,61.64 190.98,62.94 208.82,61.46 		"/>
		<polygon class="st0" points="194.16,57.47 193.7,51.35 198.73,54.85 202.11,52.93 192.29,46.04 189.87,47.42 190.78,59.4 		"/>
		<polygon class="st0" points="204.61,44.79 199.08,42.13 204.63,39.53 204.64,35.63 193.77,40.73 193.76,43.53 204.59,48.67 		"/>
		<polygon class="st0" points="214.88,34.09 213.38,34.08 205.74,50.28 207.24,50.28 		"/>
		<polygon class="st0" points="227.37,40.88 216.54,35.68 216.53,39.58 222.06,42.23 216.51,44.84 216.49,48.73 227.36,43.67 		"/>
	</g>
</g>
<g id="Grid">
</g>
</svg>
