<?xml version="1.0" encoding="utf-8"?>
<!-- Generator: Adobe Illustrator 27.2.0, SVG Export Plug-In . SVG Version: 6.00 Build 0)  -->
<svg version="1.1" xmlns="http://www.w3.org/2000/svg" xmlns:xlink="http://www.w3.org/1999/xlink" x="0px" y="0px"
	 viewBox="0 0 126.94 126.92" style="enable-background:new 0 0 126.94 126.92;" xml:space="preserve">
<style type="text/css">
	.st0{fill:#0000FF;}
</style>
<g id="Layer_1">
	<path class="st0" d="M107.56,47.13L105.4,72.6l-7.16-4.17l1.1-13l-10.78,7.37l-7.15-4.17l21.01-14.48L107.56,47.13z M75.63,61.79
		l21.73,31.32l1.6-2.76L77.24,59.03L75.63,61.79z M74.7,97.68l1.1-13.01l-7.15-4.17l-2.25,25.42l5.14,2.99l21.1-14.43l-7.16-4.17
		L74.7,97.68z M50.98,84.55l0.99,13.02l-10.71-7.46l-7.19,4.11l20.98,14.61l5.16-2.95l-2.04-25.44L50.98,84.55z M58.31,73.85
		l-37.99,3.16l1.58,2.77l37.99-3.16L58.31,73.85z M28.69,68.12L27.7,55.11l10.71,7.46l7.19-4.11L24.71,43.79l-5.16,2.95l1.95,25.49
		L28.69,68.12z M50.92,41.13l-11.77-5.65l11.81-5.55L51,21.64L27.86,32.5l-0.02,5.95l23.05,10.96L50.92,41.13z M72.78,18.35
		l-3.19-0.01L53.33,52.81l3.19,0.01L72.78,18.35z M99.38,32.81L76.33,21.75l-0.03,8.29l11.77,5.65l-11.81,5.55l-0.04,8.28
		l23.14-10.76L99.38,32.81z"/>
</g>
<g id="Grid">
</g>
</svg>
